<mxfile host="app.diagrams.net" agent="Mozilla/5.0 (Windows NT 10.0; Win64; x64) AppleWebKit/537.36 (KHTML, like Gecko) Chrome/134.0.0.0 Safari/537.36" version="26.1.2">
  <diagram name="Página-1" id="piukYRTXUva3LGdc_yS3">
    <mxGraphModel dx="3700" dy="2014" grid="0" gridSize="10" guides="1" tooltips="1" connect="1" arrows="1" fold="1" page="0" pageScale="1" pageWidth="827" pageHeight="1169" math="0" shadow="0">
      <root>
        <mxCell id="0" />
        <mxCell id="1" parent="0" />
        <mxCell id="9eXhxKmKI8XXCZGN5zWt-1" value="" style="rounded=1;whiteSpace=wrap;html=1;arcSize=19;fillColor=#d5e8d4;strokeColor=#82b366;" vertex="1" parent="1">
          <mxGeometry x="-578" y="-442" width="262" height="117" as="geometry" />
        </mxCell>
        <mxCell id="9eXhxKmKI8XXCZGN5zWt-2" value="&lt;b&gt;&lt;font style=&quot;font-size: 19px; color: rgb(0, 0, 0);&quot;&gt;Actúa cuanto antes&amp;nbsp;&lt;/font&gt;&lt;/b&gt;" style="text;html=1;align=center;verticalAlign=middle;whiteSpace=wrap;rounded=0;fillColor=#d5e8d4;strokeColor=#82b366;" vertex="1" parent="1">
          <mxGeometry x="-560" y="-417" width="233" height="73" as="geometry" />
        </mxCell>
        <mxCell id="9eXhxKmKI8XXCZGN5zWt-16" style="edgeStyle=none;curved=1;rounded=0;orthogonalLoop=1;jettySize=auto;html=1;fontSize=12;startSize=8;endSize=8;dashed=1;" edge="1" parent="1" source="9eXhxKmKI8XXCZGN5zWt-10">
          <mxGeometry relative="1" as="geometry">
            <mxPoint x="-447" y="-126.066650390625" as="targetPoint" />
          </mxGeometry>
        </mxCell>
        <mxCell id="9eXhxKmKI8XXCZGN5zWt-17" style="edgeStyle=none;curved=1;rounded=0;orthogonalLoop=1;jettySize=auto;html=1;fontSize=12;startSize=8;endSize=8;dashed=1;" edge="1" parent="1" source="9eXhxKmKI8XXCZGN5zWt-10">
          <mxGeometry relative="1" as="geometry">
            <mxPoint x="-740.7999674479167" y="-303" as="targetPoint" />
          </mxGeometry>
        </mxCell>
        <mxCell id="9eXhxKmKI8XXCZGN5zWt-18" style="edgeStyle=none;curved=1;rounded=0;orthogonalLoop=1;jettySize=auto;html=1;fontSize=12;startSize=8;endSize=8;dashed=1;" edge="1" parent="1" source="9eXhxKmKI8XXCZGN5zWt-10">
          <mxGeometry relative="1" as="geometry">
            <mxPoint x="-161.59993489583326" y="-303" as="targetPoint" />
          </mxGeometry>
        </mxCell>
        <mxCell id="9eXhxKmKI8XXCZGN5zWt-10" value="&lt;font style=&quot;font-size: 23px;&quot;&gt;&lt;b&gt;¿Qué puedes hacer?&lt;/b&gt;&lt;/font&gt;" style="text;html=1;align=center;verticalAlign=middle;resizable=0;points=[];autosize=1;strokeColor=none;fillColor=none;fontSize=16;" vertex="1" parent="1">
          <mxGeometry x="-570" y="-323" width="246" height="40" as="geometry" />
        </mxCell>
        <mxCell id="9eXhxKmKI8XXCZGN5zWt-27" style="edgeStyle=none;curved=1;rounded=0;orthogonalLoop=1;jettySize=auto;html=1;fontSize=12;startSize=8;endSize=8;dashed=1;" edge="1" parent="1" source="9eXhxKmKI8XXCZGN5zWt-20">
          <mxGeometry relative="1" as="geometry">
            <mxPoint x="-1156.4615290715144" y="-297.5" as="targetPoint" />
          </mxGeometry>
        </mxCell>
        <mxCell id="9eXhxKmKI8XXCZGN5zWt-29" style="edgeStyle=none;curved=1;rounded=0;orthogonalLoop=1;jettySize=auto;html=1;fontSize=12;startSize=8;endSize=8;dashed=1;" edge="1" parent="1" source="9eXhxKmKI8XXCZGN5zWt-20">
          <mxGeometry relative="1" as="geometry">
            <mxPoint x="-1157.692326472356" y="-382.3076359675481" as="targetPoint" />
          </mxGeometry>
        </mxCell>
        <mxCell id="9eXhxKmKI8XXCZGN5zWt-20" value="" style="rounded=1;whiteSpace=wrap;html=1;arcSize=19;fillColor=#f8cecc;strokeColor=#b85450;dashed=1;" vertex="1" parent="1">
          <mxGeometry x="-1004" y="-356" width="262" height="117" as="geometry" />
        </mxCell>
        <mxCell id="9eXhxKmKI8XXCZGN5zWt-21" value="&lt;span style=&quot;font-size: 19px;&quot;&gt;&lt;b&gt;Energía y transporte&lt;/b&gt;&lt;/span&gt;" style="text;html=1;align=center;verticalAlign=middle;whiteSpace=wrap;rounded=0;fillColor=#f8cecc;strokeColor=#b85450;dashed=1;" vertex="1" parent="1">
          <mxGeometry x="-986" y="-331" width="233" height="73" as="geometry" />
        </mxCell>
        <mxCell id="9eXhxKmKI8XXCZGN5zWt-50" style="edgeStyle=none;curved=1;rounded=0;orthogonalLoop=1;jettySize=auto;html=1;fontSize=12;startSize=8;endSize=8;dashed=1;" edge="1" parent="1" source="9eXhxKmKI8XXCZGN5zWt-22">
          <mxGeometry relative="1" as="geometry">
            <mxPoint x="272.5333658854165" y="-385.26668294270826" as="targetPoint" />
          </mxGeometry>
        </mxCell>
        <mxCell id="9eXhxKmKI8XXCZGN5zWt-52" style="edgeStyle=none;curved=1;rounded=0;orthogonalLoop=1;jettySize=auto;html=1;fontSize=12;startSize=8;endSize=8;dashed=1;" edge="1" parent="1" source="9eXhxKmKI8XXCZGN5zWt-22">
          <mxGeometry relative="1" as="geometry">
            <mxPoint x="267.2000325520835" y="-303" as="targetPoint" />
          </mxGeometry>
        </mxCell>
        <mxCell id="9eXhxKmKI8XXCZGN5zWt-53" style="edgeStyle=none;curved=1;rounded=0;orthogonalLoop=1;jettySize=auto;html=1;entryX=0;entryY=0.5;entryDx=0;entryDy=0;fontSize=12;startSize=8;endSize=8;dashed=1;" edge="1" parent="1" source="9eXhxKmKI8XXCZGN5zWt-22" target="9eXhxKmKI8XXCZGN5zWt-47">
          <mxGeometry relative="1" as="geometry" />
        </mxCell>
        <mxCell id="9eXhxKmKI8XXCZGN5zWt-22" value="" style="rounded=1;whiteSpace=wrap;html=1;arcSize=19;fillColor=#ffe6cc;strokeColor=#d79b00;" vertex="1" parent="1">
          <mxGeometry x="-155" y="-361.5" width="263" height="117" as="geometry" />
        </mxCell>
        <mxCell id="9eXhxKmKI8XXCZGN5zWt-23" value="&lt;span style=&quot;font-size: 19px;&quot;&gt;&lt;b&gt;Apoya a iniciativas que sean eco-friendly&lt;/b&gt;&lt;/span&gt;" style="text;html=1;align=center;verticalAlign=middle;whiteSpace=wrap;rounded=0;fillColor=#ffe6cc;strokeColor=#d79b00;" vertex="1" parent="1">
          <mxGeometry x="-137" y="-336.5" width="233" height="73" as="geometry" />
        </mxCell>
        <mxCell id="9eXhxKmKI8XXCZGN5zWt-36" value="" style="edgeStyle=none;curved=1;rounded=0;orthogonalLoop=1;jettySize=auto;html=1;fontSize=12;startSize=8;endSize=8;dashed=1;" edge="1" parent="1" source="9eXhxKmKI8XXCZGN5zWt-24" target="9eXhxKmKI8XXCZGN5zWt-35">
          <mxGeometry relative="1" as="geometry" />
        </mxCell>
        <mxCell id="9eXhxKmKI8XXCZGN5zWt-38" value="" style="edgeStyle=none;curved=1;rounded=0;orthogonalLoop=1;jettySize=auto;html=1;fontSize=12;startSize=8;endSize=8;dashed=1;" edge="1" parent="1" source="9eXhxKmKI8XXCZGN5zWt-24" target="9eXhxKmKI8XXCZGN5zWt-37">
          <mxGeometry relative="1" as="geometry" />
        </mxCell>
        <mxCell id="9eXhxKmKI8XXCZGN5zWt-24" value="" style="rounded=1;whiteSpace=wrap;html=1;arcSize=19;fillColor=#dae8fc;strokeColor=#6c8ebf;" vertex="1" parent="1">
          <mxGeometry x="-581" y="-116" width="264" height="117" as="geometry" />
        </mxCell>
        <mxCell id="9eXhxKmKI8XXCZGN5zWt-44" value="" style="edgeStyle=none;curved=1;rounded=0;orthogonalLoop=1;jettySize=auto;html=1;fontSize=12;startSize=8;endSize=8;dashed=1;" edge="1" parent="1" source="9eXhxKmKI8XXCZGN5zWt-25">
          <mxGeometry relative="1" as="geometry">
            <mxPoint x="-210" y="-54.5" as="targetPoint" />
          </mxGeometry>
        </mxCell>
        <mxCell id="9eXhxKmKI8XXCZGN5zWt-25" value="&lt;font style=&quot;font-size: 19px;&quot;&gt;&lt;b&gt;Consumo responsable&amp;nbsp;&lt;/b&gt;&lt;/font&gt;" style="text;html=1;align=center;verticalAlign=middle;whiteSpace=wrap;rounded=0;fillColor=#dae8fc;strokeColor=#6c8ebf;" vertex="1" parent="1">
          <mxGeometry x="-563" y="-91" width="233" height="73" as="geometry" />
        </mxCell>
        <mxCell id="9eXhxKmKI8XXCZGN5zWt-30" style="edgeStyle=none;curved=1;rounded=0;orthogonalLoop=1;jettySize=auto;html=1;fontSize=12;startSize=8;endSize=8;dashed=1;" edge="1" parent="1">
          <mxGeometry relative="1" as="geometry">
            <mxPoint x="-1165" y="-214" as="targetPoint" />
            <mxPoint x="-1004" y="-247" as="sourcePoint" />
          </mxGeometry>
        </mxCell>
        <mxCell id="9eXhxKmKI8XXCZGN5zWt-31" value="&lt;span style=&quot;font-size: 19px;&quot;&gt;&lt;b&gt;Usa la bicicleta y el transporte público con mas frecuencia&lt;/b&gt;&lt;/span&gt;" style="text;html=1;align=center;verticalAlign=middle;whiteSpace=wrap;rounded=0;fillColor=#f8cecc;strokeColor=#b85450;dashed=1;" vertex="1" parent="1">
          <mxGeometry x="-1401" y="-244.5" width="233" height="73" as="geometry" />
        </mxCell>
        <mxCell id="9eXhxKmKI8XXCZGN5zWt-32" value="&lt;span style=&quot;font-size: 19px;&quot;&gt;&lt;b&gt;Si es posible, usa energías alternas junto con la energía tradicional&lt;/b&gt;&lt;/span&gt;" style="text;html=1;align=center;verticalAlign=middle;whiteSpace=wrap;rounded=0;fillColor=#f8cecc;strokeColor=#b85450;dashed=1;" vertex="1" parent="1">
          <mxGeometry x="-1401" y="-339.5" width="233" height="73" as="geometry" />
        </mxCell>
        <mxCell id="9eXhxKmKI8XXCZGN5zWt-33" value="&lt;span style=&quot;font-size: 19px;&quot;&gt;&lt;b&gt;Consume responsablemente la energía de tu casa&lt;/b&gt;&lt;/span&gt;" style="text;html=1;align=center;verticalAlign=middle;whiteSpace=wrap;rounded=0;fillColor=#f8cecc;strokeColor=#b85450;dashed=1;" vertex="1" parent="1">
          <mxGeometry x="-1401" y="-429" width="233" height="73" as="geometry" />
        </mxCell>
        <mxCell id="9eXhxKmKI8XXCZGN5zWt-35" value="" style="rounded=1;whiteSpace=wrap;html=1;arcSize=19;fillColor=#dae8fc;strokeColor=#6c8ebf;" vertex="1" parent="1">
          <mxGeometry x="-581" y="121" width="262" height="117" as="geometry" />
        </mxCell>
        <mxCell id="9eXhxKmKI8XXCZGN5zWt-37" value="" style="rounded=1;whiteSpace=wrap;html=1;arcSize=19;fillColor=#dae8fc;strokeColor=#6c8ebf;" vertex="1" parent="1">
          <mxGeometry x="-963" y="-116" width="262" height="117" as="geometry" />
        </mxCell>
        <mxCell id="9eXhxKmKI8XXCZGN5zWt-45" value="" style="rounded=1;whiteSpace=wrap;html=1;arcSize=19;fillColor=#dae8fc;strokeColor=#6c8ebf;" vertex="1" parent="1">
          <mxGeometry x="-207" y="-113" width="262" height="117" as="geometry" />
        </mxCell>
        <mxCell id="9eXhxKmKI8XXCZGN5zWt-47" value="&lt;span style=&quot;font-size: 19px;&quot;&gt;&lt;b&gt;El cambio empieza por ti, asume tus responsabilidades con el medio ambiente&lt;/b&gt;&lt;/span&gt;" style="text;html=1;align=center;verticalAlign=middle;whiteSpace=wrap;rounded=0;fillColor=#ffe6cc;strokeColor=#d79b00;dashed=1;" vertex="1" parent="1">
          <mxGeometry x="281" y="-245" width="228" height="79.25" as="geometry" />
        </mxCell>
        <mxCell id="9eXhxKmKI8XXCZGN5zWt-48" value="&lt;span style=&quot;font-size: 19px;&quot;&gt;&lt;b&gt;Aplica sugerencias del gobierno de tu país para cuidar el agua&amp;nbsp;&lt;/b&gt;&lt;/span&gt;" style="text;html=1;align=center;verticalAlign=middle;whiteSpace=wrap;rounded=0;fillColor=#ffe6cc;strokeColor=#d79b00;dashed=1;" vertex="1" parent="1">
          <mxGeometry x="276" y="-333.75" width="233" height="73" as="geometry" />
        </mxCell>
        <mxCell id="9eXhxKmKI8XXCZGN5zWt-49" value="&lt;span style=&quot;font-size: 19px;&quot;&gt;&lt;b&gt;Dona a causas que intenten reducir desechos&lt;/b&gt;&lt;/span&gt;" style="text;html=1;align=center;verticalAlign=middle;whiteSpace=wrap;rounded=0;fillColor=#ffe6cc;strokeColor=#d79b00;dashed=1;" vertex="1" parent="1">
          <mxGeometry x="276" y="-423.25" width="233" height="73" as="geometry" />
        </mxCell>
        <mxCell id="9eXhxKmKI8XXCZGN5zWt-54" value="&lt;b&gt;&lt;font style=&quot;font-size: 19px;&quot;&gt;No compres cosas que no necesites&amp;nbsp;&lt;/font&gt;&lt;/b&gt;" style="text;html=1;align=center;verticalAlign=middle;whiteSpace=wrap;rounded=0;fillColor=#dae8fc;strokeColor=#6c8ebf;" vertex="1" parent="1">
          <mxGeometry x="-951" y="-91" width="233" height="73" as="geometry" />
        </mxCell>
        <mxCell id="9eXhxKmKI8XXCZGN5zWt-55" value="&lt;font style=&quot;font-size: 19px;&quot;&gt;&lt;b&gt;No desperdicies alimentos&amp;nbsp;&lt;/b&gt;&lt;/font&gt;" style="text;html=1;align=center;verticalAlign=middle;whiteSpace=wrap;rounded=0;fillColor=#dae8fc;strokeColor=#6c8ebf;" vertex="1" parent="1">
          <mxGeometry x="-565.5" y="143" width="233" height="73" as="geometry" />
        </mxCell>
        <mxCell id="9eXhxKmKI8XXCZGN5zWt-56" value="&lt;font style=&quot;font-size: 19px;&quot;&gt;&lt;b&gt;Recicla, y asegurate de lavar y limpiar los contenedores plásticos que reciclas&amp;nbsp;&lt;/b&gt;&lt;/font&gt;" style="text;html=1;align=center;verticalAlign=middle;whiteSpace=wrap;rounded=0;fillColor=#dae8fc;strokeColor=#6c8ebf;" vertex="1" parent="1">
          <mxGeometry x="-192.5" y="-86" width="233" height="73" as="geometry" />
        </mxCell>
      </root>
    </mxGraphModel>
  </diagram>
</mxfile>
